<?xml version="1.0" encoding="UTF-8" standalone="no"?>
<!-- Created with Inkscape (http://www.inkscape.org/) -->

<svg
   xmlns:dc="http://purl.org/dc/elements/1.1/"
   xmlns:cc="http://creativecommons.org/ns#"
   xmlns:rdf="http://www.w3.org/1999/02/22-rdf-syntax-ns#"
   xmlns:svg="http://www.w3.org/2000/svg"
   xmlns="http://www.w3.org/2000/svg"
   xmlns:sodipodi="http://sodipodi.sourceforge.net/DTD/sodipodi-0.dtd"
   xmlns:inkscape="http://www.inkscape.org/namespaces/inkscape"
   id="svg3355"
   version="1.1"
   inkscape:version="0.91 r13725"
   xml:space="preserve"
   width="577.86249"
   height="413.5"
   viewBox="0 0 577.86249 413.5"
   sodipodi:docname="header.svg"><metadata
     id="metadata3361"><rdf:RDF><cc:Work
         rdf:about=""><dc:format>image/svg+xml</dc:format><dc:type
           rdf:resource="http://purl.org/dc/dcmitype/StillImage" /><dc:title></dc:title></cc:Work></rdf:RDF></metadata><defs
     id="defs3359" /><sodipodi:namedview
     pagecolor="#ffffff"
     bordercolor="#666666"
     borderopacity="1"
     objecttolerance="10"
     gridtolerance="10"
     guidetolerance="10"
     inkscape:pageopacity="0"
     inkscape:pageshadow="2"
     inkscape:window-width="1855"
     inkscape:window-height="1176"
     id="namedview3357"
     showgrid="false"
     inkscape:zoom="2.4353083"
     inkscape:cx="288.93124"
     inkscape:cy="206.75"
     inkscape:window-x="65"
     inkscape:window-y="24"
     inkscape:window-maximized="1"
     inkscape:current-layer="g3363" /><g
     id="g3363"
     inkscape:groupmode="layer"
     inkscape:label="ink_ext_XXXXXX"
     transform="matrix(1.25,0,0,-1.25,0,413.5)"><g
       id="g3365"
       transform="scale(0.1,0.1)"><path
         d="m 0,0 4622.93,0 0,3307.97 L 0,3307.97 0,0 Z"
         style="fill:#0b3d57;fill-opacity:1;fill-rule:nonzero;stroke:none"
         id="path3367"
         inkscape:connector-curvature="0" /><path
         d="m 1822.15,1912.16 c 0,0 531.81,-155.9 782.28,-158.74 250.43,-2.87 422.97,257.42 516.21,287.67 0,0 -812.53,128.29 -1298.49,-128.93"
         style="fill:#9c1116;fill-opacity:1;fill-rule:nonzero;stroke:none"
         id="path3369"
         inkscape:connector-curvature="0" /><path
         d="m 3937.31,1829.42 c 225.43,128.06 -427.97,865.19 -1004.97,706.12 -577,-159.08 -702.73,61.58 -1009.77,180.82 0,0 1014.36,-1354.25 2025.98,-937.36 40.75,16.8 -51.55,27.54 -11.24,50.42"
         style="fill:#ba151b;fill-opacity:1;fill-rule:nonzero;stroke:none"
         id="path3371"
         inkscape:connector-curvature="0" /><path
         d="m 3709.8,585.254 c -56.66,-100 -221.66,-105.828 -325,-72.5 -76.48,24.668 42.35,147.16 -180.83,271.672 -223.18,124.492 -417.94,42.351 -545.77,-2.121 -127.81,-44.434 -109.9,140.996 -81.39,412.815 0,0 353.93,65.62 610.76,8.57 570.56,-126.8 578.89,-518.436 522.23,-618.436"
         style="fill:#afd6e5;fill-opacity:1;fill-rule:nonzero;stroke:none"
         id="path3373"
         inkscape:connector-curvature="0" /><path
         d="m 2530.74,1580.37 c 0,0 360.66,106.02 473.58,508.53 112.92,402.52 381.16,685.87 677.98,633.85 346.2,-60.68 430.57,-629.06 250.8,-1093 -73.72,-190.3 27.54,-628.66 -72.46,-831.996 -123.03,-250.156 -200,-263.34 -200,-263.34 0,0 36.66,126.672 -133.34,123.34 -174.44,-3.418 -262.53,-132.695 -295.33,193.984 -52.46,522.712 -593.15,60.684 -772.95,-13.105 -179.82,-73.809 -132.5,283.767 -132.5,283.767 0,0 -339.41,-99.29 -299.84,433.19 0,0 155.76,-82.15 504.06,24.78"
         style="fill:#e8f8fe;fill-opacity:1;fill-rule:nonzero;stroke:none"
         id="path3375"
         inkscape:connector-curvature="0" /><path
         d="m 3106.34,1487.79 c 0,0 -25.37,2.82 -92.37,-116.7 -66.98,-119.54 -370,-200 -555.36,-445.27 -63.97,-84.636 -37.11,226.89 -37.11,226.89 0,0 98.28,23.4 162.37,62.62 64.1,39.24 121.58,127.95 247.11,197.46 125.54,69.55 275.36,75 275.36,75"
         style="fill:#cfeffc;fill-opacity:1;fill-rule:nonzero;stroke:none"
         id="path3377"
         inkscape:connector-curvature="0" /><path
         d="m 2073.83,1494.11 c 0,0 -36.51,-259.92 228.92,-196.72 265.39,63.22 218.93,188.05 344.6,243.46 0,0 -297.33,-182.03 -573.52,-46.74"
         style="fill:#cfeffc;fill-opacity:1;fill-rule:nonzero;stroke:none"
         id="path3379"
         inkscape:connector-curvature="0" /><path
         d="m 3605.06,1147.75 c 0,0 -116.7,-34.6 -131.5,-155.414 -14.79,-120.813 -93.4,-87.414 -125.52,-200.234 -20.67,-72.618 100.66,-56.836 156.91,-2.993 0,0 147.94,167.368 100.11,358.641"
         style="fill:#cfeffc;fill-opacity:1;fill-rule:nonzero;stroke:none"
         id="path3381"
         inkscape:connector-curvature="0" /><path
         d="m 3919.1,1587.44 c 0,0 -83.4,-76.89 -100.21,-157.65 -25.71,-123.68 18.48,-310.55 19.4,-472.485 0,0 10.72,492.905 80.81,630.135"
         style="fill:#cfeffc;fill-opacity:1;fill-rule:nonzero;stroke:none"
         id="path3383"
         inkscape:connector-curvature="0" /><path
         d="m 3733.79,1706.75 c 46.8,114.86 -176.12,-9.91 -185.4,-134.53 -9.25,-124.62 17.39,-265.85 38.4,-295.25 0,0 -23.73,117.8 29.28,206.68 53.03,88.87 93.45,163.55 117.72,223.1"
         style="fill:#d9f3fd;fill-opacity:1;fill-rule:nonzero;stroke:none"
         id="path3385"
         inkscape:connector-curvature="0" /><path
         d="m 2846.99,1623.63 c 0,0 530.43,167.78 386.25,579.94 0,0 -25.64,-431.91 -386.25,-579.94"
         style="fill:#cfeffc;fill-opacity:1;fill-rule:nonzero;stroke:none"
         id="path3387"
         inkscape:connector-curvature="0" /><path
         d="m 3775.31,2323.07 c -3.26,-43.96 -22.26,-78.4 -42.44,-76.89 -20.18,1.48 -33.9,38.33 -30.64,82.3 3.25,43.97 22.26,78.42 42.44,76.91 20.17,-1.49 33.89,-38.34 30.64,-82.32"
         style="fill:#0b3d57;fill-opacity:1;fill-rule:nonzero;stroke:none"
         id="path3389"
         inkscape:connector-curvature="0" /><path
         d="m 3869.81,2295.02 c -3.11,-41.89 -20.32,-74.78 -38.45,-73.43 -18.14,1.34 -30.33,36.38 -27.24,78.29 3.11,41.9 20.32,74.78 38.46,73.44 18.16,-1.35 30.33,-36.41 27.23,-78.3"
         style="fill:#0b3d57;fill-opacity:1;fill-rule:nonzero;stroke:none"
         id="path3391"
         inkscape:connector-curvature="0" /><path
         d="m 3587.3,1805.25 c 0,0 -98.37,29.73 -272.5,80 -97.12,28.05 -226.68,40.82 -354.49,110.51 -354.55,193.35 -963.98,-199.09 -1327.87,-528.59 -326.19,-295.38 -996.471,-76.93 -1378.409,496.47 0,0 472.246,-198.23 729.246,206.23 256.993,404.46 442.313,327.67 647.303,316.82 204.99,-10.85 239.19,416.95 -7.79,311.05 0,0 337.08,215.44 715.71,16.41 378.68,-199.04 595.81,-337.59 808.8,-393.9 0,0 -27.1,-44.05 -55,-106.25 -27.9,-62.19 -95.83,-182.08 487.5,-418.75 91.45,-37.1 7.5,-90 7.5,-90"
         style="fill:#ed1c24;fill-opacity:1;fill-rule:nonzero;stroke:none"
         id="path3393"
         inkscape:connector-curvature="0" /><path
         d="m 2667.59,2273.93 c 0,0 -718.28,175.82 -908.46,132.01 0,0 238.37,125.19 98.28,329.72 0,0 147.95,-244.71 420.51,-259.4 226.29,-12.21 389.67,-202.33 389.67,-202.33"
         style="fill:#d3181f;fill-opacity:1;fill-rule:nonzero;stroke:none"
         id="path3395"
         inkscape:connector-curvature="0" /><path
         d="m 409.453,1877.7 c 0,0 279.629,-400.95 732.537,-414.86 159.81,-4.89 177.21,152.39 364.98,280.84 197.93,135.42 564.55,243.45 659.41,281.49 0,0 -1006.66,-289.17 -1174.345,-10.13 0,0 -181.531,-238.2 -582.582,-137.34"
         style="fill:#d3181f;fill-opacity:1;fill-rule:nonzero;stroke:none"
         id="path3397"
         inkscape:connector-curvature="0" /><path
         d="m 3167.3,2042.75 c 0,0 362,-116.45 450,-165 72.5,-40 132.5,-107.5 132.5,-107.5 0,0 21.98,-1.5 40,12.5 29.85,23.2 65.83,48.14 122.5,85 103.75,67.5 111.67,191.67 111.67,191.67 0,0 55.83,-42.92 53.33,-124.17 -2.5,-81.25 -70,-118.75 -90,-133.75 -20,-15 -105.01,-42.08 -150.01,-54.58 -14.12,-3.93 -23.93,-8.62 -62.49,-28.33 -45.64,-23.32 -48.92,-42.46 -80,-3.34 -67.5,85 -130,87.5 -277.5,140 -48.04,17.11 -265,55 -330,150 -65,95 80,37.5 80,37.5"
         style="fill:#ed1c24;fill-opacity:1;fill-rule:nonzero;stroke:none"
         id="path3399"
         inkscape:connector-curvature="0" /><path
         d="m 3786.98,1721.36 c 0,0 54.37,0 64.58,-50.99 10.19,-50.99 30.59,-78.18 30.59,-78.18 0,0 -116.76,-10.37 -142.76,84.97 -10.21,37.39 47.59,44.2 47.59,44.2"
         style="fill:#ed1c24;fill-opacity:1;fill-rule:nonzero;stroke:none"
         id="path3401"
         inkscape:connector-curvature="0" /><path
         d="m 3717.3,1760.25 c 0,0 -37.79,6.05 -46.8,-17.06 -7.93,-20.34 -9.85,-45.61 10.94,-68.71 44.42,-49.34 175.17,4.93 128.29,78.95 -38.89,61.4 -57.4,70.17 -90.75,47.43 -6.85,-4.67 6.73,-33.46 -1.68,-40.61"
         style="fill:#aa1318;fill-opacity:1;fill-rule:nonzero;stroke:none"
         id="path3403"
         inkscape:connector-curvature="0" /><path
         d="m 3675.46,1713.95 c 0,0 -54.37,0 -64.58,-50.99 -10.19,-50.99 -30.59,-78.17 -30.59,-78.17 0,0 116.76,-10.36 142.77,84.97 10.2,37.4 -47.6,44.19 -47.6,44.19"
         style="fill:#ed1c24;fill-opacity:1;fill-rule:nonzero;stroke:none"
         id="path3405"
         inkscape:connector-curvature="0" /><path
         d="m 3053.97,1984.42 c 0,0 276.67,-69.99 370,-86.67 93.33,-16.66 253.33,-80 263.33,-120 l -16.66,-6.66 c 0,0 -133.51,91.42 -246.67,103.33 -63.34,6.67 -370,110 -370,110"
         style="fill:#d3181f;fill-opacity:1;fill-rule:nonzero;stroke:none"
         id="path3407"
         inkscape:connector-curvature="0" /></g></g></svg>